<mxfile host="app.diagrams.net" agent="Mozilla/5.0 (Macintosh; Intel Mac OS X 10_15_7) AppleWebKit/537.36 (KHTML, like Gecko) Chrome/137.0.0.0 Safari/537.36" version="27.1.6">
  <diagram name="Page-1" id="oAR8GXehPuf3Aou8DUGm">
    <mxGraphModel dx="1234" dy="824" grid="0" gridSize="10" guides="1" tooltips="1" connect="1" arrows="1" fold="1" page="1" pageScale="1" pageWidth="850" pageHeight="1100" math="0" shadow="0">
      <root>
        <mxCell id="0" />
        <mxCell id="1" parent="0" />
        <mxCell id="XcO1IeknTUuwNreUQsLX-29" value="" style="rounded=1;whiteSpace=wrap;html=1;strokeWidth=2;" vertex="1" parent="1">
          <mxGeometry x="165" y="312" width="88" height="79" as="geometry" />
        </mxCell>
        <mxCell id="XcO1IeknTUuwNreUQsLX-33" style="edgeStyle=orthogonalEdgeStyle;rounded=0;orthogonalLoop=1;jettySize=auto;html=1;exitX=0;exitY=0.5;exitDx=0;exitDy=0;entryX=1;entryY=0.5;entryDx=0;entryDy=0;strokeWidth=2;" edge="1" parent="1" source="XcO1IeknTUuwNreUQsLX-7" target="XcO1IeknTUuwNreUQsLX-29">
          <mxGeometry relative="1" as="geometry" />
        </mxCell>
        <mxCell id="XcO1IeknTUuwNreUQsLX-7" value="" style="rounded=1;whiteSpace=wrap;html=1;strokeWidth=2;" vertex="1" parent="1">
          <mxGeometry x="355.5" y="312" width="88" height="79" as="geometry" />
        </mxCell>
        <mxCell id="XcO1IeknTUuwNreUQsLX-2" value="" style="rounded=1;whiteSpace=wrap;html=1;strokeWidth=2;" vertex="1" parent="1">
          <mxGeometry x="351" y="185" width="96" height="83" as="geometry" />
        </mxCell>
        <mxCell id="XcO1IeknTUuwNreUQsLX-1" value="" style="shape=image;verticalLabelPosition=bottom;labelBackgroundColor=default;verticalAlign=top;aspect=fixed;imageAspect=0;image=data:image/png,iVBORw0KGgoAAAANSUhEUgAAAMgAAADICAYAAACtWK6eAAAAAXNSR0IArs4c6QAAAERlWElmTU0AKgAAAAgAAYdpAAQAAAABAAAAGgAAAAAAA6ABAAMAAAABAAEAAKACAAQAAAABAAAAyKADAAQAAAABAAAAyAAAAACbWz2VAAAOEElEQVR4Ae2ci5XcOA5F7ZkJxBtJw5lsJo2JZEORHMmE4n3wVNmyjkoSwS/YD+fQ+hHAwyXRn7LsT59oJEACJEACJOAh8NnjVNBHCsZiqHkJrL1Ka9UgggLfN0XaNY0EPATWh9M3HPVxHvIgUL1gfOcgg4p7wPaYYoQxhVI2BRn02AO294Y1gTLr5h5gmJPct3tAsQ+HMjYGN+h2g45yrrld8mdmAIH//zDsSCOB0QgIBNkHUSuGy3IaRJDRvnN8waCRwKgEBMLcTeJtEEVS+85BI4EIBAQiXU3iaRBLxuYABFooAgK1yU3iaZB/QmGhWBL4RUBwmtQkf/zyvXVmv3PQSCAygXeIl7sFpDSIpgS+K4DzSKADAWuSW5byIxa/e9xCykkBCHyBxls/atmkO6aYdLvrLgKueP4Nw440ErhLQB4TS+1DC3d3/z9SHx8Ut78XGBaHRgIlCCiC2MjdlxYj2xQRcoSYP40EahBQBM3Zm+abZQLvHAGalZ3OJHBNQDAlZ4+av9sUnt7k5ksjgRYEBEm8+3TJEWjOnsSak5S+JOAgIPDx7FXzcVvzhG6ldCQB/y/u4oGncPI0iPnRSKAXAc+eXTxiFU6eZJ5c9CGBUgRsszfZt55EWqpKxiEBJwGBX7EGSXkXy6mXbiTQlMDaKpunC6WVOOYhgRMCnp9+5Che6e8g61ES3iOBqARKN0hUDtRNAocE2CCHWHgzOAF7W7yIsUGKYGSQWQmwQWZdWdZVhAAbpAhGBpmVABtk1pVlXUUIsEGKYGSQWQmwQWZdWdZVhAAbpAhGBpmVABtk1pVlXUUIsEGKYGSQWQmwQWZdWdZVhAAbpAhGBpmVABtk1pVlXUUI/FUkSvsggpTvj7R2ThuPwApJz5cGdTx59xRFaxBBWdYYdqSNTUAgz8bT9HkS6RjpRywDbP9STDBosQjYF7XvGBJL9qdPkRrEINNiEwi3hlEaRGPvC6p/EBAcbYSxKA0S7itPmB3QXmiotYzSIO2XkRlJAAQiNIhwpaYiEGo9IzTIOtX2YDGhCERoEAO6hqJKsWcEQq1llAZ5/o3sGXg+i0Eg1FpGaRDF2q8x1p8qTwj8jWd68ny4R1EaxMAZXFpsAms0+ZEaxOB+xbAjLRaBFXI/Y9gxlEV7WXEFXRuKYfb274F/DkrgG3StjzGoxHNZ0RrkWY0+T3gkgZoEIv2IVZMDY5PAIQE2yCEW3iSBfwmwQbgTSOCEABvkBA4fkcAZge94mDrO4vEZCbQiIEhUZO/yO0irJWOe6QikdqDNp5HAKAQUQu7uYZubbHeDb+clJ6EDCVQksN2br87Vm/9VwLP73lz0I4FaBBSBX+1Ze3ZqUf8m/bQoPiSBDQHdnL89zm+/AmMvkL0y67pUO4uXGovzSaA7AX6K1X0JKGBkAmyQkVeH2roTYIN0XwIKGJkAG2Tk1aG27gTYIN2XgAJGJsAGGXl1qK07ATZI9yWggJEJsEFGXh1q606ADdJ9CShgZAJ81WTk1ZlDmzzKeB6fr3vYbbu3YtirH1tbcWFjaHv1gtfZ/aELorhmBASZFoyzvXLnmSKGjSHtTgH7OUMWQlFNCAiyLBj7PVHqWhHbxjDmKWwY8RTSjIAik2ev5PhYzu7mKaC7aApoRkCQacHw7JMSPorcNrqZp4huYpm4GQFBpp6Nsd+X2qzyXaK9kDvXuxC8nIyAop47+6DHHNPW1DxFNhXIZE0JKLJ59kRLH9PYzDyFNRPHRM0ICDItGJ790MNHobWJeYprIoxJmhEQZPLsg94+SwtCniJb6GKOdgQ8e2AUnyJNEvVVE8EesfGGMbs9X8PQxoUW2WCNNW/TCS70MXAob56vBOVV/B5RcGkL59EW3cfqtvpbmCJJdF5P/VaL287+mx5LkGpn8VJj7ecrbrzvb37A66+oea1YtyJ2Dc5Pzc/viHYtGFurkdfiV2FmDZI6tsWWPk/VMuv8pTTYTTzFeUluplUwUkwwWTHMt6QWQbyi5hFXVMAmmOLco2dWH+NRw0rxWiBOCghUxCipqYCkXyE8wn55lz0z4B49s/oYj9KmCJjLy3QJRmlTBMzVZv6CUcw8gool3wXyaJndZ4co+zKXl2YrOA8geJyrcTlPkfbUIyYtw73ZgmkeLbP7GJdSpgiUw8v8W5kiUY5WKSXUI6JU7n0cj5bZffaMcq5zWGlOYqfvAj+vZvMtYh4BRRIfBMkB4qkjgs8BJtcthZe3XvPtZTl7QkqI9kArkfcohuKmR8+sPsajlHkZaSkBzjgCP6/2xZnzNzdP8t8CFL6wojyaZvQphVYymJbSkBNHe+r3bKycYq98JQOGp5ZRffQKVMJzi+Wp0/xGsQVCPDVIbgGepLk5r/ytKC8QTz0j+VjdVn9J89ZXUkNuLEEATx3GM8s8SbMSJjgr5tqwIj06o/hYfTYEo4Z5OGgNIZkxjVFqLeaTZakJbT4tDgGFVM8ay4Al2mavUssfAxZLSWMTWAeU93ctTWyQWmTnjFttI2biWuFvo7ixQYojDRPwLYzSekLlKjQb5IoQn0ch8PyHWCl6L79IsEFScM41VxzlrA6f0C5skNDLR/EbAuvmvNgpG6QYynCBVodij48jjctFXF4XTmyQC0B8/JPA+vPsA52wQT7QYu9KTf3I1vNL8C7lXJeev5mci8D81ShKvLPONm90u1PHfo7mFLUPduc6Jx99+xBQpD1b26WPrKSsVzW8qs/83PYq6Nl9dzI6diWgyG6NsF1bu7b7o5tC4FZ3ynlWbSmJnnOzEtKZBBwEnnsv9bjcycVf0u9Q4pxRCWiGsOwPHVI70ubTSKAVAUUizx59+mTrfAZKOWYnZQASuEFAMSdlX+7nmn+27YPeuc5OygAkcEFA8fzOXjybc5Hi3uOzBK+e3YvMWSTgI6Bwe7X37t63GEXsbsLtvCKJGYQEDggI7m33mud8OYh7eoufYp3i4cNBCAh0JG/uA+3Zn1xtY3o6dOvPcxIoQUAQxLMX9z5aQsw2xj7BneutP89JIJeAIMCdfXc1R3OFHPlfJT16fhSH90jAQ0DgdLTHUu8tnuR3fFKF2HwaCZQgIAji2X9HPharih0lu7pXRQiDfigCgmqv9tnd5xarmt0VsZ1XTQwDfwgCgiq3+ynnXGsT84irrYnx5yUgKM2z5458tAWmo8RX91roYo45CVztrbvPtRWeu4K281ppY565CCwoZ7uPvOfaEotHZEt9zDUHAUUZnr2297E4TW0v4M51U4FMFp6AooI7++pqjsWpYn9VidouqLRL1S3T2i1z3cSK8O8FUth/X2SxmttV1x49byFSkGTBOMo/6z2rVzFmshJrpT2BeAqordeAeHTN4mP1z2CKInLXxGJ0NU8BNQUrgns0zeZjHCKbQnzumliM7uYpopZoQWCPnll9jEdUy10THaVwTyG1tBsUj55ZfZZaoCvHzV1H8x/GPJurlniPltl9arGuGTdnTbSmME9sTzGePHd8PFpm95E74Aaao9DiXZNloDp+SvEU89O54IkglkfL7D7GJZLlrIeMWKinoFp1eLTM7lOLdY24iqDe9TDfbhblfzVZuxEaM/FH4dHtb8nvLLun4+/E9cwROHn0zOqjHogdfbzr0FHydWpPUddR/TMWuHo0zeajfoRdPAVZPWugXdQmJPUUlRDeNVXh5dE1i8/iotbXSZxrZn5Dm2dTtShIkcSjLbqP1R3RFKJT2S+jFBrxdXcDbkMeA4dpbX1U9jxOW+iusKL/RegudtJlxAZ5FrjixAaNBKoRiPIxbzUADFydwFv1DBUTsEEqwmXo+ATYIPHXkBVUJMAGqQiXoeMTYIPEX0NWUJEAG6QiXIaOT4ANEn8NWUFFAmyQinAZOj4BNkj8NWQFFQmwQSrCZej4BNgg8deQFVQkwAapCJehfxAY5sVDz3qwQTzU6JNCYE2Z/Jjr8XGkuXZhg1wz4oz2BNb2KdMzpv4jF5tPI4EjAoqbd/eTzQ1hdwvazgtRGEV2IaDIut0rR+c2J4wdFXB1L0xxFNqFgCLrqz0kXRRdJP188twKSbWzeKmxOH9eAoLSbKwYZuuPP4P98arTz+5LsBoplwROCZx9irWeevIhCXwAAmcN4in/3eNEHxIYlUDpBhm1TuoigeIEBBHPft949cz8aCTwIQi8aoKz+8uHIMMiPwSBPy+qFDz/cjFn/9jm28e9KwaNBPYEBDf+i/H+OP4HR8FYMcKZQPHZd4uzZxquWgquScB+sjjbL/ZMawqoEVsQ9Kqos+daQxRjhiIgUHu2R46eaaQKF0eB26JDFRtpYQJotbXf7oWUcwlQ3w+JJjSlsFdz9Uc0/vGRCLzaC3fvd2d1992pBUqlkNq/H3HWQvEY5ncCo3BVyHr/XVry1QqPr8leHRwEOe92Pef1Z2Vf0BSjp5XaB9KziJTcismlimacNiytUQSjtSkSllpjaS0+J58BL1U447RhaWvW2krukx76f/JKfRcrxM+DP6vjiREQDMWgOQikNoilYJM4QHd2eeucP2x6T4OsqPb5SVTYwj+YcAlc77ee2j0NYnoVg01iJOKYNJTKvfGAbdBL/kL2HfE46jB4LFmTgxRcR4sV3hQVcGOPzaD1JivxhdP21TSmqIRNMiYDW5seltMk5julKapio4zDoOdGk4y9YL5Tm6I6G2yWfgysOQSjtykE3N0HNncY+9xIiT7yvD2O8jjyUIfAirD28ahijGICITZsD9hxa+vjwj79ep4/bvU9tGqQV1XKqwe87yawuj3bOwpSru3TMiMJkAAJkAAJ1Cbwf4i/H8GFqmC5AAAAAElFTkSuQmCC;" vertex="1" parent="1">
          <mxGeometry x="380" y="191" width="40" height="40" as="geometry" />
        </mxCell>
        <mxCell id="XcO1IeknTUuwNreUQsLX-24" style="edgeStyle=orthogonalEdgeStyle;rounded=0;orthogonalLoop=1;jettySize=auto;html=1;exitX=0.5;exitY=1;exitDx=0;exitDy=0;entryX=0.5;entryY=0;entryDx=0;entryDy=0;strokeWidth=2;" edge="1" parent="1" source="XcO1IeknTUuwNreUQsLX-3" target="XcO1IeknTUuwNreUQsLX-7">
          <mxGeometry relative="1" as="geometry" />
        </mxCell>
        <mxCell id="XcO1IeknTUuwNreUQsLX-3" value="&lt;span style=&quot;font-size: 16px;&quot;&gt;复杂问题&lt;/span&gt;" style="text;html=1;align=center;verticalAlign=middle;whiteSpace=wrap;rounded=0;" vertex="1" parent="1">
          <mxGeometry x="358" y="238" width="84" height="30" as="geometry" />
        </mxCell>
        <mxCell id="XcO1IeknTUuwNreUQsLX-5" value="" style="shape=image;verticalLabelPosition=bottom;labelBackgroundColor=default;verticalAlign=top;aspect=fixed;imageAspect=0;image=data:image/png,iVBORw0KGgoAAAANSUhEUgAAAMgAAADICAYAAACtWK6eAAAAAXNSR0IArs4c6QAAAERlWElmTU0AKgAAAAgAAYdpAAQAAAABAAAAGgAAAAAAA6ABAAMAAAABAAEAAKACAAQAAAABAAAAyKADAAQAAAABAAAAyAAAAACbWz2VAAAXmUlEQVR4Ae1dS4wdxRXt98DjT2zAfGKEMbIjUEKk4IAAA4nEeEMAIbFBQpEiRVka5IEFe9vLSCxsS+CsYBkhZcOCj7yZsRSQLRDELBDhEyyMiQcH/B1/xua99HnPd6ZfT9etqu6q6up+t6Q31d1VdevWqXvqVlV/JkkkCAKCgBKBjjJFEoIh8OKL+yapsl6vN9ntdmdwvnv3tkGMYwn1ICAEqQF3EKLfT3ag6n6/P8mp0Ol0Zvr93gGQRgjDIeUnTQjiB9dCqUQMHSkKCy9c7O/au/f5nQuncuAVASGIV3iHwt0QI6tof5d4lCwe/o6FIP6wHUiemnplZ5J0BtMp91WJN3GP6ajEa0ZP5cwlAn7JAU07k1u2PNk5dOjtGZd6i6xFBIQgi1g4PfJPDlJXSEJI+IiFIB5QtSXHpk23JWvXrhn87r33V0knnfieOnXWQjMhiQVYVlllDWIFlz6zDTlAjK1bH0g2brytUPCRI98lX3/9XTI9/UFhev5it9vZKlvBeVSqnV9brbiUXoqAfkEOUmzdev/SorkrIA5+yDs9/aGWKFfvrczkxMhpBQRkilUBvHzRq95jMn89e25KjmwZHMPbpIvyBF6FCRtl0c6gUyKpW6KMFFEiwHuPsuSg6uBJIIMPvA58WUnNIyAeJI9IyXOd96hKDlLLxJM8/PBTBw4efOsIlZG4PALiQcpjZ1XSZM1hKhCyhkQpLkHPeRWnylUbBIQgNmixedVTG/20iBVcmMjJrPasV2F1Y3tRCOKg64fTK7Ugl96DalFtDVN69hF6uiaxPQJCEHvMrEpwI72VoILM3DQL75UUFJFLlggIQSwBiyn7xo3rY1KnlboIQRx0a6fTfdSBGGsRnAepSyfrRkReQAjiuYM4I/ZctYh3gIAQxAGIdYnAc1qqgNd0VWly3RwBIYg5VsqcnDFyRqwUKAnRICAE8dwVR44c81aDT9nelG6YYCGIgw6jz/QUiYIH0TxgWFTM6BrnnTidjIRLpgECQhAHhqB7B4Mz5LLV4/F3Luh04spK2iICQpBFLCod4ftVKgF44cm1F+FfourvUuki1+0QEILY4aXMnb4myxolb9BKsYUJr7/+ZuF1uegeAXnc3RGmeLz8oYeemkzFbSwSOXzHvMM+hVtULn8NU6uPP/53/nLmXD4FlAGj8qG8clsZwkUB8CLpo+aTi1dGj8iLlH14EZ7Dx3pmVEs5yyLQyZ7IcXUEXnhh37TJ4+Y2L1Bh/fLaaybTKvEe1XtwVIIQZBQPJ2emJEFlIAoeR8k+vk4LevI4pl5j797npD+d9OCiEJliLWLh7Eg31cpWBBJMT2evlDvGJ3/KlZRSHAKyi8WhUzIN9yDCGmx/l9z3KNlZmmLikjUAVUnGW329Xt+Bf1BrIR+LU2PjIkUI4gJFjQybNYlG1EIybkzu2bNNplULiPg5kCmWH1xHpA4N2c3dbRADXkPIMQKxtxPxIN6gLRaMDzzgbT+TreCsBBADj9XLf5fKouL/WAjiH2NlDWZkkf8mpQQwQIIQJADIuiq4NYoswnXo+U2XNYhffEV6wxEQgjS8A0V9vwgIQfziK9IbjoAQpOEdKOr7RUAI4hdfkd5wBIQgDe9AUd8vAkIQv/iK9IYjIARpeAeK+n4REIL4xVekNxyBRt1Jz/5TmHb9/wv1f6dKEjcPOdZtp/Qhu6a9txI1QYbvU/QmyzzcV7dBSP06BJrxjFl0BAEp6J9Q2j7xqusSSY8VgaGXjPFJ5WgIQsQQUsRqxCH0io8oURCEe5o1RLdIHbEhEM/ni2olyPC/w3IL1Ng6TvQJi0D9RKnt06NCjrCm1szaOpNbtjzZOXTo7Zm69K/Fg5SdUt15520LON11l/yH1wUwGnDwxRfHki+/VP/LOK4JeN0Y3xqrY4s4KEHKLMSJFE888UBCxxyYkhY/Au+++2FSjjDhp1xBCTI19WrftPtABiGFKVrNzQeyvPPOB8YNCP0KcjCCmE6rhBjGttKqjDZECUmSIN/mxYLc5P4GPMbjj9/fqo6XxpghQP1u4k2u3kieMZNcLZf3XSzT3art259OHnzwl9VaI6UbjcC6dWuT9etvSmZnTyVzcxe5tmwMtbvllSAm5MCUaseOPyU33riGA0TSxgCB5cuXJWfPXkg2bLg5SXeuUqKcZFodZgs4yBRL1UqQA57Ddbh06fKCSBxfvDi/cC4HcSCwYsXEEkVAkDVrVqYkOZ/cc8+m5PjxkzqS7EiF7FwiyOEFb4t0E+8BcoAkLgKIcPr03EBUliAuZIuMcAicPHk2mZ+/slDh/v0faUjid+vX4wtT/CMkrrZwz5w5nxw9eiL5/vtTCYgh5FiwrUYeTEwsG9F78+ZNI+dLTzo7cH9t6XU3V7wQZOg91Aq62K0iYpDXUNcmKU1GAAv3xx67j20CvR7BZiqZ6IUgScJ7D9rSK6MzPAS8hRCjDHrxl1m2bOmyGCTBTxVMbiGoyuquOyeIzt3Be5QN8Bo0lSorQ8o1EwHdVEtnd2Vb7ZwgunfFy3oPkEO8Rtlubk65iYmlHgTa671Igh0t58E5QbjpVVnvIVMq5/3eSIGcF/E1zfJAEDX2ZbZ04TlkZ0qN6TilcOsQ4OBjmlXsz0qirtu9siWI62kVtoPpR03EeTZs2HDL4DQb03E2XxuO0fb33/90oSl5LJBAbaf4kUd+vZC/jgOQRHWH3cczWk4JwgFmO71yRQ4ygqLOL9KX8lFMecgwKKbrTYqpTSAFHev0p3wUoyzIgl8dWGCatX8/9wiKrkV26U4JcvX7VXYaKHJXXZCjI7Ojo6Ia48skCzEMow7jMFY2lxHGDb3JyHPJ1qeQQzIJB4qthUVewClBuLbaTK/gPcoGdNwbbxwoW9yoHIytCUQhI0bsKwAHCiFIwq1DfCzUnRLEhYJlp1YhjIEMgWIalWEYNEentLpjInEoPag+YBGCKKHaFWwXy8aD2DYenQOv4XOkVOmEOlE3dIgl1KkP9YVPLDgv4nonKxhBTADDdq7t2oNGLhP5PvPEoAfI+vLL/6hloMhiG4seWZ3KHjudYpVVgsrZ3u8o4zVW3HpLcv3mxa3K5el5Nlw6PpyvX5w9keD44tXzbB7VMXmROqYYZQlqggewQDj9Lzsvif5p+pQrKoLYeA8bcpAR5MlQZOiUZxBvHuY4ffhTY+OAoWIEffbZR4vEe7lmSw5bPAgTDCyDQSMljClZoBttC3tpvGehURHEtK1khLr8NobAyYJh4GdKFBAEOobwJFQXpz+lucADZMHPBg8MZhgwYtvIIFy4OBqCmG7tmo6W1/92aNRc423TbIgCPRF8k4Tq4drighhF8oEHgok3gZ4hvWqRvmWuRbVI1zWgTnJkdRsQJSWgLkBfjPC+gol8kOPnf3h0MOr70ANY3PHnZxLUwwXgAE/StBANQUw+rACD4AI6aV1qDDSycXmrptmQpGpdReVNBgt4UZAjREA9qI8LNtNBTk7ItGgIomu0jhwoD6OlBaVOXjd99xm/a1f/bMkP100C6gMhuQCj8OFFdHjYTDE5LICPDR46kuj05rCsIy2aNYhui1cHLDqGI8fQCCYGna3v8FULfXHl3PnB8ZVzcwvXsgeDBWtaNzcPx9TipZeeyRardKzDgtYcXCXAwNz4h3josEB9GDR02+PQ3/fajGu7TVojPIjOILjREoYwceMNg9+1q1cZj4YEIsrgB6ODQRUFk+mWrg1FclXXdLJU0yrCAm0BJvqBYlQDEyxQQlU/SYP+PrwqyXcZN54gHDmIGLaGoAKYIwpIAsNTBZ1Rq8rlr+vkqKY4IHcZUuTrp3MOC+TRTT117aB66o6jJ0gZIEEIGKsrYuQ7aTiSLvUmIAkXXIyaHB5oc14HYABiQGcfAXKLiIepJzdguMDCR3vyMqMnCAdkkfegkTLfUN151/IbkzSCZkmoMwrOuHX6IZ3DAun5NRhhkdUR+VyHRRKODhp5subr1bUnn7+O82gW6arG24AIg8iOlNeln+a+d7VK8uj1T9O1+InFT/qOJjJnGD3nfzyV9OaHhWEUF48X7/fbtKWoSq583nvksSiS5/oaYU8bGjRgqJ5nw4AR+83DqAmiG3GzI5TKINKPhHsPWZLkR/F85TDyso9ccHhk6y3C4vblSdLPK6M4n02/9X3FNHNORp4k3ICRKxrlafRTLBVq2cVokUGoyvm6Dh0ocHNvzsipfFHMeQ/kp8EC0x0y0qyc5elAcddKs99PJclB9aF+k2kd2qRrF8msK46aICbGpDKI0IDSPBz1krGG1gH1wZvFEGjAoGlWDDqV0SFqgnANIiOMxSCgK0hiMnJy7VKlcSMteVMySpWMkNezAwZXL9curlyotMYSBADFZBDUYdApux6g6xT7NIiiqRXVW0dMAwaHRx162dQZLUE4Q6I5fmwGAeBhFHUQt446TQwNeq1Yp76ByvWziXzfeaIliK7hsRoE9AZxicRF7ShjFFyZVRtuK1yYF9Ud+hp5kdD1uqqvsQQB8DGHkPp1J5b+v7+YsIl5MNPhJATRIVQy/fw33ylLlr0PohIYkowqHbjr54+Gw4LTo0xatDcKOSNS3ZnNA3Btuvf/7aX81eJz5I05AA/VNAsGuPION/8MNWYM6tAtWoK4AOPH9J+l4hc6XGC8R2hdpL5qCDSWIDDCWEdNH1MKzqNe+OZYkvzuftYSvk8fFTtm+O/iK95IX6LHQL8lV5txIWqCcNOKEPDenO4DpM87joQfUo9U9jklCOIMfaQiixNuvUNizv5ER+FjTj8feLhsYWMX6T+894FLHAplYSRdmTIk+zMZXX/4p3vddIbke1q3LF2jZX8Thmu2H977sBBbuqhrF+WrK46aINx7yxiVfBtFmU7R6cS1SVcfZ0y+B4xb053k9ekTwfS7ycEuexUsdFi5So+aIDAIzii4ub4rgGzlcDpxbTGphzOoWAcMH97UBCtXeaImiK6RAF83YutkuEyHLpxBVCWIrrxvL2KLlW56xRHeti5f+aMniA5En0bxY7rzc+Ti6I97V4LzHuhAnYGbdDInIzYvwg0Wun41wSJEnugJAoOoyyhMFuTUSRgtdQbBtYPk6GKdYfkaMObSXbAz6Q4e/S5rwNF5D107Y0mPniAAqi6jMO0k3dTKpA2mdZkMGD6Mk266Uvw/5v19k8FC16emePjO1wiCmBjFt39/0zdWSvm6Udu1MejkwZP5IIkSgEyCjhzI6sKTZqr0elh4o3Bq6pVHut2u9SOivZ7G71ZoCoyC+zo45t/onJs0d5QrqFBYFMRE3VzQGTRXtiiNBgzVs1koQ9O9kHiYelKfBOn1epPp/yksgk15bffubTOqxEKC9PvJb1Jj/5uqUB3XASoMjXtPHUaBxxpu/+PT3lUcGEN6szI0OahhugED+UKSxMRzQCfXgwVkjobOjtR2d4xeU591Op2ZNBW/wtCIKRZpDnB1ow8M9vO/7vO6/QtyHDX0HL4MAjiYfFMqxHQrHnKQpbiLG0UQNNv0X3nBgNFxLgOIgSkVZOsCeTxdvirppnWAJBg0fOFBnoprCwYKX4MFV2/VtMIpVlWhvssDaG49QvUPRs/UOG76/QOV1yamoyTVbTK6U94qMRkdN/Uk+VlDrrI2MZ1eUr1NJQf0byRBaOQ0MQo0MksUnJsYB4wAATtUunXGIGPmTyhyUJVlSAJMMHAgmOJBu3U2eDSZHMCmkQSB4gAeRDHxJMiPQCMoxauuvoW38o71g8X9MFdiTQgqR8RFHDrYkIR0IxwoBh7AAiH7DocNIUg24qaTA20oJEi6sr8xTTuIDJbhIcv8lbLDEPGfm0ASbstTVQl1PMWqfCbXoUtoz5HXqwxJsjKAgwssILMuclzdlco2iz3u93sHuAyGT/VzIhbTpqZeVd4I2bNn22LGgqMyBp4Vg+mW6ZQrW87FcV3GoNIdWNp4VpWcMtddeNHZ2ZNs1fv3f5So8nS7na3cfQ1WcEFioQcpyBf9JRo9oWgoorgwBh/AkmcNPWjENlC4wLY1BAEYoUgSKzHyBkEG65soVE++/jact4og1CHUYeRJKKb0snFTiJFvXxYPTL+qTmchH1ggQDYdDy607E8rCUJ9hM5DQEwkoZjycDF1fFuMgPBAm4GDLVlogEB5wgbHbQ6tJki248g4KEYajaQUU6dTnC3ftuMsDhwWSBsHPFT9OzYEKQKAOp7iojzjco0woHhc2q1rZ+OexdI1SNIFAZcICEFcoimyWoeAEKR1XSoNcomAEMQlmiKrdQgIQVrXpdIglwgIQVyiKbJah4AQpHVdKg1yiYAQxCWaIqt1CAhBWtel0iCXCAhBXKIpslqHgBCkdV0qDXKJgBDEJZoiq3UICEFa16XSIJcICEFcoimyWoeAEKR1XSoNcomAEMQlmiKrdQgIQVrXpdIglwgIQVyiKbJah4AQpHVdKg1yiYAQxCWaIqt1CAhBWtel0iCXCAhBXKIpslqHgBCkdV0qDXKJwFh/F8sUSO5rjPkPsJnKzObjvnCI71RV+VaVb92z7WjjsRDEoFd9Gxl9BrRIlar/c8S37kU6t+maTLHa1JvSFucICEGcQyoC24SAEKRNvSltcY6AEMQ5pCKwCgLz81eqFHdeVgjiHFIR2CYEhCBt6s0WtOXyZfEgLehGacK4ICAeZFx6WtpZCgEhSCnYpJAvBM6du+BLdCm5QpBSsEkhHwjMzV30IbaSTCFIJfikcNsREIK0vYcb1L7YpleATgjSIANqs6oxTq+EIG22uIa1LUbvIQRpmBG1VV1b7zE7ezIYFMGmWF9++V2wRklFzULApffYvXvbjMvWOyVIp9NxqpzLhoqsOBGw9R6hW+GUIKGVl/qajQDIYes9Qk6vgG6wV27feeeDZPv2pxvZo1XeCTdpsE/5PmWbtE2Vpww5IGt29pRKZOJjBuOUIJ1OsqvfTyaVLWhoQtX3wnXNdvHhB1UdvnVX1ctdL0sOTibS+v3eAV0e2/RgUyws0mWhbts97ctflRyHD/8nKChOCYIdBM7NXbp0OWjjpLK4EKhKjk8++Zpt0N69z+9kM5RIdEoQXf1Yh5w5c16XTdJbhgBeoz158qz1gtwOhv4uu/xmuZ0TBOsQVdX4QJqKJMuXL1MVk+sNRgBeA+So+q45vEfo6RVgd04Q3TQLHzI7ceJ08tlnR0e8yYoVEw02A1E9jwCIgS1Z223cvBzTcx/TK9TtdBeLGjPcTehM0nk+BknuvntD8vnn3yarV69Mbr75umTNmlX5bHLeMATgJebmLlT2Fvlm672Hn+kV9OjklXF1/sIL+6b7/f6kSt5jj92XrFu3diF5YmLI1YmJxanWsmVe+LtQpxxUQ4A+sDA/f9k5KUgzeKH9+z+i08J4797nvNmxNwvU3RNBo7MkoTkqxYVIyMWxQ+DwYX7nKr37oVzzugDL+RqElNKtRZBP33iSJvE4IoCple7REl9rD8LbG0FQAbejhXQT94l8EsYPAf26A5j49R6o4Rr88RUOHnzryJYtT6bzQ/WCHbsdAOPWW9cOFuy+dBG5zUEA0++vvvqvRuH+Lt/eAwp4W9xkW6dbsFPezZt/kdxzzyY6lXjMEDCdUeBpjT17tm0NAU8QgqAhNiRZt+6GkR2uEEBIHfUhAGJgPapbb5CGPnetqA6Kve1iUQUU63a1KB/dLRVvQoi0OzZbayxi0O12gngOqjGYB0GFL764b7LX609T5SYx7pVgfSJexQSt+POQl7DxGNQqkMP1K7UkWxUHJQgpYTrdovzZmAiTvSbHcSNw/PjiRxaIIDYaY82BGUhockDHWgiCiqemXtmZVr8DxxIEARUCIRfkRTp43eYtqpCuHTr09oxuC5jySjyuCGAr97m/1Nn62jxIttHiTbJoyHGdU6o8+lEQhJQSohAS4xnHRAzqgagIAqWGJMGRrE+AwjiEGIlBuEdHEFIM8XBbuDcpZMmi0vxjEAKtqGtnygbBqAmSbwgIg2u9HkgzDJ1O91E6ljg+BPDyXLfbnSHN6tiqpbolFgQEAUFAEBAEBAFBQBAQBAQBQSB2BP4PGwzOUBlBXTYAAAAASUVORK5CYII=;" vertex="1" parent="1">
          <mxGeometry x="378.5" y="316" width="43" height="43" as="geometry" />
        </mxCell>
        <mxCell id="XcO1IeknTUuwNreUQsLX-20" style="edgeStyle=orthogonalEdgeStyle;rounded=0;orthogonalLoop=1;jettySize=auto;html=1;exitX=0.5;exitY=1;exitDx=0;exitDy=0;entryX=0.5;entryY=0;entryDx=0;entryDy=0;strokeWidth=2;startArrow=classic;startFill=1;" edge="1" parent="1" source="XcO1IeknTUuwNreUQsLX-6" target="XcO1IeknTUuwNreUQsLX-8">
          <mxGeometry relative="1" as="geometry" />
        </mxCell>
        <mxCell id="XcO1IeknTUuwNreUQsLX-21" style="edgeStyle=orthogonalEdgeStyle;rounded=0;orthogonalLoop=1;jettySize=auto;html=1;exitX=0.5;exitY=1;exitDx=0;exitDy=0;entryX=0.5;entryY=0;entryDx=0;entryDy=0;strokeWidth=2;" edge="1" parent="1" source="XcO1IeknTUuwNreUQsLX-6" target="XcO1IeknTUuwNreUQsLX-11">
          <mxGeometry relative="1" as="geometry" />
        </mxCell>
        <mxCell id="XcO1IeknTUuwNreUQsLX-22" style="edgeStyle=orthogonalEdgeStyle;rounded=0;orthogonalLoop=1;jettySize=auto;html=1;exitX=0.5;exitY=1;exitDx=0;exitDy=0;entryX=0.5;entryY=0;entryDx=0;entryDy=0;strokeWidth=2;" edge="1" parent="1" source="XcO1IeknTUuwNreUQsLX-6" target="XcO1IeknTUuwNreUQsLX-14">
          <mxGeometry relative="1" as="geometry" />
        </mxCell>
        <mxCell id="XcO1IeknTUuwNreUQsLX-6" value="&lt;font style=&quot;font-size: 16px;&quot;&gt;主控Agent&lt;/font&gt;" style="text;html=1;align=center;verticalAlign=middle;whiteSpace=wrap;rounded=0;" vertex="1" parent="1">
          <mxGeometry x="362" y="359" width="76" height="30" as="geometry" />
        </mxCell>
        <mxCell id="XcO1IeknTUuwNreUQsLX-8" value="" style="rounded=1;whiteSpace=wrap;html=1;strokeWidth=2;" vertex="1" parent="1">
          <mxGeometry x="209" y="456" width="88" height="79" as="geometry" />
        </mxCell>
        <mxCell id="XcO1IeknTUuwNreUQsLX-10" value="&lt;span style=&quot;font-size: 16px;&quot;&gt;LLMs专家&lt;/span&gt;" style="text;html=1;align=center;verticalAlign=middle;whiteSpace=wrap;rounded=0;" vertex="1" parent="1">
          <mxGeometry x="215.5" y="503" width="76" height="30" as="geometry" />
        </mxCell>
        <mxCell id="XcO1IeknTUuwNreUQsLX-11" value="" style="rounded=1;whiteSpace=wrap;html=1;strokeWidth=2;" vertex="1" parent="1">
          <mxGeometry x="356" y="454" width="88" height="79" as="geometry" />
        </mxCell>
        <mxCell id="XcO1IeknTUuwNreUQsLX-13" value="&lt;span style=&quot;font-size: 16px;&quot;&gt;RAG专家&lt;/span&gt;" style="text;html=1;align=center;verticalAlign=middle;whiteSpace=wrap;rounded=0;" vertex="1" parent="1">
          <mxGeometry x="362.5" y="501" width="76" height="30" as="geometry" />
        </mxCell>
        <mxCell id="XcO1IeknTUuwNreUQsLX-14" value="" style="rounded=1;whiteSpace=wrap;html=1;strokeWidth=2;" vertex="1" parent="1">
          <mxGeometry x="511" y="456" width="88" height="79" as="geometry" />
        </mxCell>
        <mxCell id="XcO1IeknTUuwNreUQsLX-16" value="&lt;span style=&quot;font-size: 16px;&quot;&gt;Agent专家&lt;/span&gt;" style="text;html=1;align=center;verticalAlign=middle;whiteSpace=wrap;rounded=0;" vertex="1" parent="1">
          <mxGeometry x="517.5" y="502" width="76" height="31" as="geometry" />
        </mxCell>
        <mxCell id="XcO1IeknTUuwNreUQsLX-17" value="" style="shape=image;verticalLabelPosition=bottom;labelBackgroundColor=default;verticalAlign=top;aspect=fixed;imageAspect=0;image=data:image/png,iVBORw0KGgoAAAANSUhEUgAAAMgAAADICAYAAACtWK6eAAAAAXNSR0IArs4c6QAAAERlWElmTU0AKgAAAAgAAYdpAAQAAAABAAAAGgAAAAAAA6ABAAMAAAABAAEAAKACAAQAAAABAAAAyKADAAQAAAABAAAAyAAAAACbWz2VAAASUklEQVR4Ae1dO48lRxW+d00IiS0LG0urSRBY4iFkQktbk5CawCtBgLSW9l8Q7J2Af7GSIQJpHeCUZGskhzjgERgRYDmwjSyTQGoP59ypmu3t6b71rjpV/bU0093VVafO+U59daqqH3e3wwYEgAAQAAJAAAgAASAABIAAEAACQAAIAAEgAASAABAAAkAACAABIAAEgAAQAAJAAAgAASAABIAAEAACQAAIAAEgAASAABAAAkAACAABIAAEgAAQAAJAAAgAASAABIAAEAACQAAIAAEgEIzAPrgECmRB4Kdv/lxd7a4ekTA1Eaj3u/3lnz/442GShsOGCLzQsO7NVk3kOBA53iUAzmYg8Ll67e7r+08/+UjPruG0AQKIIJVBf+PNt55SlcqjWv3hB++fe+RDloIIIIIUBHcumiMHpT2Yp6+cnyGSrCBTMRkEqQS2GVbxnCNkw3ArBK0CeUGQAqAuiXz17vd4aBWzgSQxqGUq0+0chFeBDAZ2z6eaVoA0H0jaIqPHcybQ6ta5RNueU9KcrPhm1+PqXFcEYeAXlkaXfCRmuTQHOayBkkliSMH+uUf6Kqvz0p7suOiFLN0QJLahtXYGrVpdLTWS2DRa2RLns1594+MD8XMQ7plo/P4uGfPAx6CFPM3G8NxwSB+1oFN00nfufl999sk/fhctIHNBs2z9IFJsM9/46iuuN5oqzuSgkB07uZ2K2tWOJLG96nNKr580v0difPOIVFTranpfaW7PmqaiIwhFjn+tKR6RXq23Mo2Ho16p7az1PRIT1VUmA8+kRUZrl9gIUqoHjp3ocqMn0Owk1OJ3as/5S296VoGana+dHhcx6GLUql9B34ibvIskSCkHmNYSHM4L67PWiKukhw49uaPINexdMjC2A1uSlSPtTg4huWWYpdzcYq08xU62J649T0IL6+NSoeh1to07gIBKVEDe4KzSsBZHkJDGG4y+KeDrBNNwVGw9vZQzJPGy0xe7BNu99EiQH1RUHEFI+xoAeUWRCo0hyFklM/vYGhhpotWt0Un6KieOIOSoe77Kl8zXwEm6pD0espVHnlpZxOgijiDkASngVNODJ8oS3v1wdQq1Oq9a9VBbc24SCeJUOlMG5ZCjHdezXJ6uIvEKThahkUJ6eRgy0ryoYlsmSBRgmQvxfYiDlckNtDVJrC7YXyMAgqy0BNOb6pXLWZI5eswFGZLcSp/ny32+pEvuOnqUJ5EguhKQznpKNhqWbUh4y1xKP5Ss+1aFlMB1LqVP00iny+l5qeNa9fjoL5EgPnpXyVOqNzfkOJwyoiZJSB/fuY8+pXPGa7Xqcaq8d+aonIFXUmgV42nhaoMeNyGdDqTToww68RxjNXIsyc9Y95L4IBxYQO73W5aUkvTOiziCGCcwQdQSeDnSfHrwpXrMMmiMXprlcUTifezGZIktOymn+ThWF/P+h2IZJbZY35TQhWWKJAg3xJJRRFIPVcqxpeRuzTci5yCmd9MlnVxK9gbkqlI2cvQoJTtWrkiCsDElwco0n4jFvOtypbCTNrSyThL7RiF9m/ZjemvukhR9YJXNuG/+Rl5GW6qJMnMgVaJCCY/aLNklNoKwsjzUop7lfEnx1LRSPWGqXlLLMzkKYcYraSLnwuwLsRHENhSOJPQVjwt+B5vSlE3PsW/9XncOG2rJSPgy5KqKPKwicryzmkHABbHMXcKGV1AonVe4ctyTOFbBESp2yXNJxxHTMkcPHhVcEk66B9y7Isi08VmycBoR5h7tFB9HbME3yyLqOBYxOtviyh4Y/e3pcW8a0XNpdKI5oXbDSrw5eEOIFrpznSlbtwSZGs0NjxoZ31yM2nJHkQkRWC8mL2/q+D/jP9L7wooj0hzscc492XIgG6IjtuT5hQ9OQxCEDU10ZFIUsYQwDUn5AF8wz7HHzkWYlOjBBM6lR0G8TooehiBsZU1nMikmPas6iXLDiybKRI33UzqdEcjBbhuKICkOZTBcw4EJKRTn722zQzKfXr00lr1gJ36ZNwRI/uFL/oQllTkLKWfzri37MjHMpzYPlPfM5u9wr0hnRRgd1my1NqUs6zIRR/kR0qEiCDvX9PLJE3aWQ+KmwygWP9y2NBRC9Hjm5uEIwqYlPpKtDTzK7DexmxKl5lxOOrhDEiQ1ikh3WmH9NMlXsXW45nGxcluVu9Oq4pL10iSUlzovStYxsGwVa9uImA8ZQayDU4YKVgb2fghMh2h+JfrINdQq1hzyEg84zuvA+TUCNLQ6HxGLIYdY1lFmvV/bc+zLIDDi0MoiNfQQi40UPGHX1gnTPTW2y8nzW/aSsgcS96NNzKcYf2N6MuIxT9hpLqLJNtXIPq6bHlm4fsSbj1kn3odu5t4MF1P8zxDpeMznLbaRowfjuYUIkvQ0akSj09fAhn3/KqKemyJ8Y49PWhBm5OjBmA5NEG44kwcK2d5S23FZOTYy5FbK2M2P2avcsufyOIKYud780hDnwxKkAjk0twDTQI7HfC5tq4CDxeAgzfYc+gxJkMRHTVy4iooWLmXtdSYKHxeMqEnv1Fg9pe2HIgg1AmUagCoAdJfEmONQmCjDkWQoghSKHEMQY4kopSb1NOwc5kMYwxCkBDlGn4AyaUrNUUZZ3RqCIAXIkX2o8PCLJ+qmF39h/+wjCFeOlab99ZdMdldXl8fyX+/045fv6xtZmQ4KECU7hplMDRLTPUFyOzbX8OCGEJYMLiIEuc1mvrrgo8cv3T/YlJR9bixJl+5J0jVBMjs02ZnPkaIIIU40f440FGVykCUnrr0PU7sliCQnHonBkaI2KVb5kh5ZJOG7amaFC10SJLPzoldc5BFjqcVcXcRGlcw4d3nHvTuCkNP4Xkf0RxmmTSh2vvHwyyeH3X5/T07EmFq1dhxHFAl4r1lUI707gmRasYqab/QRMVzNJo4oLXF3WVTyelcEyRTyg8kxBjGmzagdSXqbtHdDkGbk4OHUbnLfYtrOuj8OJ0qOSBI7tG0B950WlcbUSfOOZzfXYgRErMkf5xrDkoNB3D+6ttEfUPPuufYvcTtnrjnkbcn5U7qIIDmiR8ijD+MNqRwNh++hfEXRJOAOPUWSK4dU1+Xgoa5LYInr4iNIDnJwSPcF70iOO/unfa1Q+Vq3ko/v35DNR9tXssyTQzCdlzXninyrVq6JSRZPkNShlZkUah/Ej8MNJsdWNybJcc7lBoDfnkwlSapv3Vqm5xBNEI4eKSYacnjJGH++4Yuk/7zEkOTCV/JCPo4iXv5ZKFslSTRBUnoYkCOl/QSRhBu4jq0txcexdYaUEztJT517+E7KETlONRf/ZeDESbvYCbvYCJLSs3D0OOV2e+16UjrqPQ5rZcqeIsn0PZYTohLnI2In7CIJkjIu9R1a3axWnXA6LhECnqtb5pNHOhazlA4xtk6fciIJkgKW9zea7ItMPihtPY8nVuYmYixaIqOIOIKkRg8f7xznHWLe3fDRuHEewsp3+dd3eLtkUUrHuCQvR5o4giSAxD91fHCBgkm5C6G1634rW8YHek2KI105rle/LIogidHj0g89TMr9cFrK5TdpT4ki1AbUUs2t0kQRhKLHvRggvCfmnneJY3TYTBmP+UjKhD1hBFHEBWIIYqKHKmIlCcXQKhOyPB/xWPpNiCKiJutiCBLrPt/oMe47HbHIJZTbUBQRQ5CSodV3BSahyWyraIUoIgVQEY+a8MSMCBL1FK3PIyUPv3wv9d2F3f/+/u/dZ7//y9FvfPzNH3x7960fvnI8f+UXP5Liz+f0WNOZdee/pI3eIXn84tvnLhmxbyDSyCD6azMunUKuS/kJNhWitM3rM87NET0+/8Nfb8hh6+bGx392k0YSl86v/vLHuySdTRQJecnKYuWzNyMK7ZO3ZB4RQywCI2r1yue+R+rcY6mhzR3CkYXzSdmq6ewxF/HpxKTgtqSHCIKQYmpJOUeadlw3K1euXOvXfRqaLc0kmUYUm157X1Vnj7lIwpKviNWs5gSJvTlIPZPnjcH4Jvrfv30eVNjOUYIKZc5cXefBo0hzgkgeXoVGhND8mblxFBeqQ2j+WzpTFLmVNkswUWSW6j418xB3xoI5mhOEbFMR9mlXmRyTc1cdS9eTG9ySUM+02Lpjy1m1fG4cUl5t8wfsVUDeIlklECTYMK/hFX87N2FLbTQJVfdX1GOYFWtU62ezmhKkqPEeoT/WaSg3Q8AD615Xs5oShGBWM6i9Tl3Lu62GV17KD5rJNcyKnYcQXKolZK0JEmO7jimEMoUR8BtmBfsudhEnl7VNCRJjvNf8Y+jv6eZyPeT4INCUIKSg8lESeTpAwG8eEnPvqmkbaUaQUhN011i4g6bWrYoe2OsY40q1FR9dmhHER7mVPHol/Tr5Tp6oFPu0a2y5kzZ5XoytO7acp1pdZ+uOIAmrIcGOCm04ofmDFfIoEKpDaP6TKjg6p5q+O6lnwMWWBFEBevpnTbxBOK3Ivu8xTTt1HJr/lKzYa6E6hOY/qVdG7Gf1qNl5tdOWBIkxUscUii3D70v49rCcL+n9ilglZ+U60FnPVBZ92htB3GB6rKa4hTzLwS8WuUjC1zmflM1HF2k6S8Fursd4BJlbmHjODem7v/nZKgG4MfJ1F4kS1Qgqzrr85P1f1dc5c+cUZHShzFJeuS1kXj6xPHThv+lDjJJIsWRpjzov2RFzQ3lJTkxaM4LEGO13Fz0GBv8y0kmxZEmPOi/Z0SINQ6wWqG+4TgmdXAj8IEgIWsi7OQRAkM25HAaHIACChKCFvJtDAATZnMthcAgCIEgIWsi7OQRAkM25HAaHIACChKCFvJtDAATZnMthcAgCIEgIWsi7OQRAkM25HAaHIACChKCFvJtDAATZnMthcAgCIEgIWsi7OQRAkM25HAaHIACChKCFvJtDAATZnMthcAgCzd4oDFGyx7zTV3Nr6I+3BsugDIJkxJV/QJN/I7A2OaYm8Eck+F10bHkQAEHy4Lj756//1JQY1gz7Q6IgiUUkbY85SBp+x9IcOVpGjbkJTBImLLZ0BECQRAxDfpc8saqg4kxYSaQNUl5QZhBEkDNyq2KHW7nlbkkeCJLobZ6UYxsXARAk0beShzGSdUuEvVpxECQRasn3HyTrlgh7teIgSDWo61eU9bc/6qsvokYQJNENPj81kFgFijdEoCuCxHzwujS2PIyRSBLcUc/j+a4I4mXyfqe98mXMxHetJZGESdvkTroH9jGdXMsPXjd71ISNJrBUxnZ6Lerqin6Le59frkNR2yBbPotlo1mzyfkRewdQnV1uRhDCSdPfo0C8lCv/45fuHx7+5717uwa/dsQksUSpvcTajBQThzD2k9O1Q7V2QWJ6S4JE4cE/Ku/6OeHHL759/vDLJweKJKEEjNJpqZCEBrukV5E0Hlp9dXXhkk2+O9CowZVt6bpeSqyR1h1BCGBu9E7AjpHkiyd65/jt7hogD1vH19d+ePzyfac/esVg31LxN958K6o7ofnLuSuKtLQLdS8jEOvvDz94v1k7bb2KpZehPJ1qosjpTLgqCgEeXsUoRJ2hc+gWI9e3TFOCJBivYgH3BQb58iFg5h7N5oMpljQLXVbp2LDL5THUsijK3RM5FEX8p7Eathxesc5NI4gBTZt98I6BRyQJhq1agVRyJIwwstnYnCCpIPB8BCTJ1h6yCWKfpESObIokCmo+xGL9aZjFIVjxccrGZKPVrUOKDJRNQ8BEDZ5vqBRJUnwpgiCpoXjuiElU0vNrOC+CAM8z7pFklUs6+VDEUr4IgjCouaJILgdBTjsEpEQPRqD5HMS6YdLr2yTsN4qApGGyGILwnXEOqxttEzDbICCto3xBkmc+/eSjj1+7+zoP+5QkvaBLHQQkDa2sxaIIwkoRSTRIYt2znb1EcjD64gjCSoEkjMJ2NqnkYA+IJAgrBpIwCuNvksnB6IslCCsHkjAK425EDr7X8VvJFoomCANnSHJJh2fmj3bYOkeAVyzf4ZVL6XbwilE3m3m+hx9jwNYnAkwMfhxI96J+VwSxoIIoFol+9tLnGmtIdkkQawwThY/5iV6bhr0oBLqLGHP0uibI1Bh+4JHO7UNzfInPsdVBQNtqKFJc0rHuaRhldV/aD0OQJeNsmiGPPcU+EwKjkCATHBADBIAAEAACQAAIAAEgAASAABAAAkAACAABIAAEgAAQAAJAAAgAASAABIAAEAACQAAIAAEgAASAABAAAkAACAABIAAEgAAQAAJAAAgAASAABIAAEAACQAAIAAEgAASAABAAAhtD4P9GcJCaOY1hCwAAAABJRU5ErkJggg==;" vertex="1" parent="1">
          <mxGeometry x="380.5" y="462" width="43" height="43" as="geometry" />
        </mxCell>
        <mxCell id="XcO1IeknTUuwNreUQsLX-18" value="" style="shape=image;verticalLabelPosition=bottom;labelBackgroundColor=default;verticalAlign=top;aspect=fixed;imageAspect=0;image=data:image/png,iVBORw0KGgoAAAANSUhEUgAAAMgAAADICAYAAACtWK6eAAAAAXNSR0IArs4c6QAAAERlWElmTU0AKgAAAAgAAYdpAAQAAAABAAAAGgAAAAAAA6ABAAMAAAABAAEAAKACAAQAAAABAAAAyKADAAQAAAABAAAAyAAAAACbWz2VAAAMkklEQVR4Ae2d65HcthJGd1zrMCzfnw7CLs/mI8egdQxWPqLrOgj/vF6HYZXnorkDiaJIovkA0Q2cqZL4AkHgND48GgT34YEfBCAAAQhAAAIQgAAEIAABCEAAAhCAAAQgAAEIQAACEIAABCAAAQhAAAIQgAAEIAABCEAAAhCAAAQgAAEIQAACEIAABCAAAQhAAAIQgAAEIAABCEAAAhCAAAQgAAEIQAACEIAABCAAAQhAAAIQ8Erg4jHh//ntn6uk+3a5vIvpv91uv8v+yy/fPsdzbMsQEPv8+/BwvVwuP0sKom2+eXjo/vfLt12ZVG17qjuBvPntn+eHgTAms327/YpQJslkPSnCkErrFsQx+yBntnElkO/ff/ywCH9oFWeGGCbd476q4hpk7Jvb7clDaxJaPR8/MYBaHJKlUJP1RvORPf+pTLXqoxwOu8ejS6YOXQhkbe30iXAwWhyvfDrHzuEEtlREUtltue/wxCcidCGQONhL5GXyspeaajLxDk5urrwkbw4qMBcCWdW1clCoSKIfAuYFsreLhLjyFsY9rbukTNzBeVO4L3bzAkllL7jhOvm3FG6vyJbi5lqCQPAmJkKYvvxoOnWKxGlaCA/uREVWfQZZ6d2ylknzLcjewp1qXawZxFt64iz51nSHAthtvfeM+8wLRCDsKeR7DXiGETw/Y28B31sB5mbnQyA7+rF7DZjbAN7j31XAd9j1LG4uBNIbYSPMfy+XDwzS8xWnrZN90ivw8L6cC4GIeXuYG0XCZGEegWydJBRxXDbaMk9O5mMNafX122OUv94+PvnKrd3UbrVDePfd1ZvW7gQSi4x0m+Ikk0xWady93owT82ptqxWHtBSSdnGUxLHgrjFLARBuBTJmpTUaIhmTW3fcV0xhXJe6S8RRQ4tdjUDEYNr1Il7WIqQKYYnrWsYvbx+rKFtuBumawiA1ltRcqbB4tlKEpq9LK63pykoFNB2Dv7NVCUTwa70jeLbWFdY1XVhv44wlElU0g+MMttZPHuf/6OM14vAwt7GGT3UtiGReO7Eo3YXe+GuINRa2ZXGIqatsQWIZbt24kcPWLS1x5QKRgqEVCZ6tr2X05v3H0Mimf7V4rKZyWmUXa5hR6RPj2RoS0e2LO1cTsiaP1VR+qxeIZFo7YYVn67WISKurcefKpGtNHqtmBSIZ19R0Uii0NecUzBrOabukrbyR0EQLIgUXz1Zavojja0ZVe7G+zq5+0N5KDRkZ4bGKJL7cNtOCxGyr15WEjw30NWq8sfKtvH6jyaJ2PKeJy0OY5gQiRtF6tjx8+e+IQqYdd2nGcUekx1IcTQpEDKCtCbU1qyWjrkkLHqtlWs0KRLBoa0RtDbuM2t5VBuVpmzQtkJY9W4gjLQ4J0ZwXawpLa4UFj9VUKZg+13QLEpG05tnSjqu047TIscYtArlbtRXPlnY8pR2f1SiKYZ4QyICG1Jg1v9iIx2pgbOUuAhmBqnXJbmvjrJFZNx8ySJ9AV9sgFnFMGFl5ihZkAlRN7l8Re/LvygcG0rXsnRUTPFo+RQsysH5fmMJx/GKjpmANbve9O/pWbqg5u9rXemgM1rRAoiBkoZRqgZCGaGVhpGWRT4e22ro0JxBEsVPBoaVpqXVpRiAiDFqKneIY3+7sS+3j5GuOqxcIwtAUg51hKhZKtQJBGDsL/drb74P82sYqVQpE7fdfWwgInyZQWWtSlUBytRoBUpcuGX5D5PDgybtcNbiJqxGIiEP7lupcURYhDF81qcHAc3mdOy8c5Vo/FxTc33PhVOcraE2qEMjWLlVsGUQULYpBU8j7iid8L0z9Z+7GkToXiXuBbBFHbCkQxbg0p4+38Pb8CSXXAllrLISRFoAmRGxV1ryKI+w9LsByK5A14kAYmmK/PozYYE3Xy6NIXApkrTg81lzri2u5O9bYw1t3y93r7muNgTjyC6efHAyDcdWTnH2x0lULssqV69x7oipsxgKtsY+XeRJXApEPDmgmtbzAN1a+D0tOTXZy08WSrhXiOKwMZ41I+/ELD3+wyIVApOlWuRSZ8Mta8NdEPnwjYe4+qfB6284FMHDehUA+LYFdAsaYY4nO6ddkElbzbS3rrYh5gai8VojjdAFoHti/qRBssxRWWpHexkuBCl4zLxANm9rWIGjy7CWM2CZ4grrF9O59KXIx8n0XTQtE23rsQ8DduQloxiNWWxHTAkkOzOla5S7bh8Sv6WqJrS0O2M0KxGqNckiJaTASr91gswJJliFajyQicwFSA3aDYxGzM+lv3n8MDo7538vbR7Npn081V7zZ9dGiyfp3ehYSlvSKLNyrufTD3/+9DsIN9wenq9ztJFd/fvdTv5X9o39iu6U3IsT2lhaymRRIamJQPoV5tOEkvldh9OuwrznidxDnO0njD3//Ef6//RqE8izHR/7EoxUmB69zcd4nDru562efD4K290u97HZ09wphLJWB44XiqZtlcpC+1AQvmXLLtSCO5/Dx/w/h3uuW++u/5/LuldFxOZVu1lJslty95gSSdO8mPCFL4MfX7uLouxXjaxwPCYhI/pBK5JBfauIw1cU+JBHKSMwJJJXukOAuFUZzHXFoKH0R5npUS5IahMs69y+eXPDAnUBScPUsd34UTf+gikL23a3rERlKdbOOeMYRcZgTyBm1x1E14REG8BdHWxWLSTdv/kKjMnInrs78aTH1hGtwWKTGZNLVuuacK7kZcpiYE8gSnCOaZTFuukge79pMP9NEiC6k4jkMyIMZ8v76uayF+ZC8T9fHbq6LpU/65pDX5TubFccAy+1pcDCxm2xlJu5Zd8qKq9eVQHLNoI9M142OmzvM2X2KMEPBc8HZlUAiXLYQOIsAAjmLdFXPyfMunEVELQqkWzZE/v718vPLX8UN/tkGzQlE0b8+bMb4M2Y/e6/iSFYSnZ8c7UupOTfvvuyo7+5CyOt86P7dI5kP6ObDVHnlqsmVopLRROMiTKMCkQnA+TUJA8tdB/vs9gTamjxtroslNr7XgF1vb/5bRSCwe151g/PAp7Ug8hr7mr9GlJvrn9/9+HTGjHHufJwbf2oC8bjUyF8sDgur5iM86aMd2VsQmRGVFYLy3aOl10jmSeS8cp7Bc+binLj7Nwy6c56leEooT7IyMbl+SBHVUpDsApE1xvaE8YpEulqhJQmveDU3GF8qExPXbk9mu1ahfOV8LSWrQETdVsUxLAXS3Wrwzd0hgpl9aTV+vNzHbDNhyp/O+YX408Yg5TEup+BeQ4Y3WWWNuvz6VW3Xfred/7rXrL56qqwLI5olZyWcVSD3QXnMh4ut2a6EC3rlEindrONWm37OR9Yu1ufHsAcBnwSytiBJJFNfKAmDruR9BKieQPCcdMPlDaWmCIoJRAD8Ff64ytjSwXWHQMZQGjyWTwOF8tHFrPfu3AIrEOliRQuwhcAEAQQyAYVTEIgEEEgkwRYCEwQQyAQUTkEgEkAgkQRbCEwQQCATUDgFgUgAgUQSbCEwQQCBTEDhFAQiAQQSSbCFwAQBBDIBhVMQiAQQSCTBFgITBBDIBBROQSASKPayoixySf2105hItu0RSH604SQktCAngeYxPgkgEJ92I9UjAjlWE8ojsgpkuOBllB8OIeCCQFaBhMg7FxRIpG8CUytTD8pRVoH0zV7GxB/EgGicE3iZWJl6VJayCkQS2ScekRxlL+IZEJBl2y9vH8Mm3+8UN+9d4c/xM5FLfws95zeO8mEk5qMJSOGfi1PGttJ9zzUwHz73FIHEB2qaQuZGIq22t/LRhjMEkKKcvYuVSgDXIWCZAAKxbB3SVpwAAiluAhJgmQACsWwd0lacAAIpbgISYJkAArFsHdJWnAACKW4CEmCZAAKxbB3SVpwAAiluAhJgmQACsWwd0lacAAIpbgISYJkAArFsHdJWnMCpLyvuza28BRzfCN4bF/eXJRD+dPPPZVOge7orgfSvwhf4M1w6lIRaQyDY0sWPLpYLM5HIUgQQSCnyPNcFAQTiwkwkshQBcwJZWmpZChLPPZ+AhdWEkmt7AuEDD+eXRmtPNFQGsn4RYit3ceWKS5cPOGwl6PM+6T3IBxk03y7wmUNSDQEIQAACEIAABCAAAQhAAAIQgAAEIAABCEAAAhCAAAQgAAEIQAACEIAABCAAAQhAAAIQgAAEIAABCEAAAhCAAAQgAAEIQAACEIAABCAAAQhAAAIQgAAEIAABCEAAAhCAAAQgAAEIQAACEIAABCAAAQhAAAIQgAAEIAABCEAAAhCAAAQgAAEIQAACEIAABCAAAQhAAAIQgEApAv8HgDxYmVKkSQMAAAAASUVORK5CYII=;" vertex="1" parent="1">
          <mxGeometry x="231.5" y="464" width="43" height="43" as="geometry" />
        </mxCell>
        <mxCell id="XcO1IeknTUuwNreUQsLX-19" value="" style="shape=image;verticalLabelPosition=bottom;labelBackgroundColor=default;verticalAlign=top;aspect=fixed;imageAspect=0;image=data:image/png,iVBORw0KGgoAAAANSUhEUgAAAMgAAADICAYAAACtWK6eAAAAAXNSR0IArs4c6QAAAERlWElmTU0AKgAAAAgAAYdpAAQAAAABAAAAGgAAAAAAA6ABAAMAAAABAAEAAKACAAQAAAABAAAAyKADAAQAAAABAAAAyAAAAACbWz2VAAAUgUlEQVR4Ae1dTY8kRxHtmUU+YMCWQALvwR6ExAnQygcuSEyvBBI++crNWk6Im3/B7PwCH+DADfbGD+BDPk0PEldjxAVZAo0tYQECjGVbCMP2kK+nYie7OjMrqyojK7PqtbRbVVn5EfEiX0ZEVnXPasUPESACRIAIEAEiQASIABEgAkSACBABIkAEiAARIAJEgAgQASJABIgAESACRIAIEAEiQASIABEgAkSACBABIkAEiAARIAJEgAgQASJABIgAESACRIAIEAEiQASIABEgAkSACBABNwJH7mKWaiBw8trFWvrdro6fnKPsaHV0iiM+16vry5uz/f+PV9sNSq5evb874pwfXQRIkMT4CglAAJn0ZsKvEw+z6870vxEygTwkTnqUSZCRmAohrld3zrSIMEDEc7QhaQYg12pCgrQA6bq0CYG6BZEiJPqOMO+8evowVIn3DhEgQQ4xcZaAGIV5CaecXYUSlpEsXUjd3CdBAjjNhRQBFelZAuDgFgnSAig1KbBiYwgk07ILJUPGJtUS1qGd7H5hAyBxeHdOryKWuT2SIA0WKYghZDhaPd6tzLEEuDXHsDPInpA4JIplhsUTZAwxbELkIoNlu+Dp869dPkSFEZ7mnLtgCw6xhhIDpMjtIYJMiLwJwgwky84bLjX8WpwHGUKMkj1FJD/2qjXe5WyvsPtikaHXogjSd2KItygtfOqey3E1JAwztfuQZVFEWQRBBniNxcXffRYPLBzYlVtC2DV7grzw2q8vemyHLmp1dPmZPkQx7WeP12wJAq9htj4vXJPAUTZ7Qzt0DhaRKDfwzJIgscZFqPD2q9+8H5wpC78Zi6WBaZaLzOwIEhNSzT35Ts1pkMRgFvPkfnYkmQ1BeoRUszNiakL4+luiN5kFQWIMR6/hm/b9y2PwNr3OYiGqniBLMlb/qazXYim4V02QLiPRa+gRBD1HhrVVe5JqCdKVjIMc3KHSJYj0HrNQ1WqLY1GypmMXOYwu57UapCY7iKzNE/VzuW4f8aAWNmuX13BdlQeJeWXEvKJ9f67vTpU+obo8CeSvzT5VeRA8GQ+9NlIb+KVP+L7ywZPABqF2+F5/6H5p96ohSMhFI98gOcqYWvDeIZLUFm5VEWKFcg4m42UQwyXFHOxWvAdBXOsLq0gO17QspwwbJbCRS6JaPEnRBAklfSSHa9qVV9ZFksbG5QneSFRsiBUiB2Q3CWGxshdr7QkFC4VbRqxiHyYW6UG6yBFKAiecAxw6gID80IWnyhm28D33Ji0ukiAGEe9WIHerJp0vgwfv2t3q8eW2wTIMaVgcQTpi0nM+BBxi5jLadJEktJU/lQZFEaQjtCo2Tp3KeDWO2yxw5y7ZsbPVsUC6mqmWFZPokhyqdi6u81DSXlIYXZIH8eYdS/h5meJmsLJAoe3fkvKRIggScqvcsVKeqRN2H9rZKiUfmZwgXaEVk/IJZ7Dy0F35SAlbv5MTxDwRP/XYgUm5B5g5FSN89r+OMv2bv5MSBN7D954V84450SCsiy/UKmFXa1KCGNh8iblzGzAMM+/WikAo1MIcmTLUmowgvsQc7pbeo9apPlzuUkOtSQgSSsyNW70cDjNb1oxAKNSayotMQpCAEZmYB8CZ+y2EWqUl7NmfpGMl8D0IMm42uzxzn3Q16mcijGuX3FM8Yc/uQQw51i7lTRkTcw8wCyx2zoUpfvAh+4rtWx3oPRZIg4DKvnmS24tk9SBNcu6CxbliuCqybDEIOOdEbi+S1YP4VgV6j8VM+l6K+uZLTi+SzYPQe/SaG6x8g8DkXiQbQYy+zqfmeEDE2UAEXAgYT7FxlfteT3LVHVuWhSD0HmPNtMz2oeciuR4cZiHIMs1LrVMg4H+6nudN31wEYXiVYrYssA+fF8kVZqkThOHVAmd1JpVzhFnqBPF9IYrJeaZZNINhpgyz1AnicoW+F9JmYEuqoIBAKMzS9iKqBPGFV3ylXWEWzbxLnxfRVluVID7hGV75kGF5XwS0Xz3RJsjB7hXDq75TgPWBgC/M0kbnE1oD3Hzv47D3qcOrG7mO1/bmgStPOpR8eSWymInN8GQbE7UkJGA72FRLLjWCBL73kR1fACiueGsAhQAG2Oxy1DagtXCsIbux6ZnJK3E6yTc/kYdcr47XZvxsH+0Q60CR3PkHfqEP32CEsS2DH8jFgl4IgCjXvk2YXj31qOzzErL49egquqomQSbNP2A8GJGkiJ4LQypmJ4qEfbawmjbWJIitw+7cKLLzzwc3Ehc0K9sBQRMPw+5uEQBRHt5e5j9DGK0xqkoOcpMIa4jb3WfoZ/Xt1liJhLC+16rt+ks7t3NIbGhErNJnBvtT/Gq7Jla58xAVgtjg2mBpT8QucoAUANgXy9qy8ny1aWNgeQmndwaJYANtkrTlwnUz5zaue2PKsoZYmhMTxvOtciCGIed9GE5ThjGGqKEtNliaTRbnN/2gA2xgESm5Wj77wcslH8x0qEIQLWF9ADQGca5qIAeJ4UNuWHlDlCPT2kcU1ZwENh0mef9WKgRxreTKSjnJAQNO4e77m6HOFh3exGcTFWVdcy7FQCo5iEswo8Clq3xsWcCdqzzMkt0S2XtvDLNbSUt40nyzQXL7poC2fCAJknPXBIVtGhKNNfNe+2YurfcKlS7gJpN+GgNdODpVmbDGCNeOsVbGMEl1g14ghWsi2OPDU06xERArn5FVxQ6+DRLkfr68wcatz7lvjmmMlc2DYHXtA0K7LkBBmb1DZiYjVq52VVzvVnTXjSFlWAm3u19lcY611yUIhNchTBuVibg3WHPRRz7TBPnBmTkmlc+3/YpFxYy3bkTdHUrwtLY8ofPkBLEncGjg2Hswvql7ZibowcdFDqzgJu94eFB5YIGMP6A5JgY8WTJZXDKMkc8sOslePoSXMF5k0/awzfXalt3MkR02piwpSe0xUp2rJOkphIPHgNs2fWG1i/4Yg1xGV46r2Gv8Vpeqfx2p8aqD5TMTFfgm+8CL9OwMRLluSN6z6WH11IszRshGkD5xKAwP47VXo0NIDktSrtgpDCfJ/KGk40tS9N0sQuOFMT30sXFrwF4LyYhxWsN2X2YjSLcotzWGGj7lVvLY1Vm0AcmbvqQoyRHkHbKAtAdPLd9QGwy1eVuf1NfFEWSM4Y2xk4VXKd11yr5ST4BS+gNRU3js1PoURxCj4OCYOjU4qfrDbluqvqSflH2mXL3HLFJjdRrbXrC1j8kJoiGkLXCu85R6YHVMLbdGn6ll7NtfiTolJ0hfUOz6GrG63T/Py0egtDlQFEHmGqsbb7RJPTVT9jkmLEqt15g5oKFHcoJoCJnaCLn708BEo8/cuNQwXnKC1KB0jIwDHnrFdJuszthXd2xBUvZl9zuHcxLEY0U8jEoVxqR8eCniJpSP37AUUB3HbAQpLflyYHFQlMiL9H394kAOX0EK+TTI65M3VXnOuZScIHNy180rDWMmuOrLeCnkSzVp59pPcoKMAapEcjUr7BCSqJJDcC5dPpEz9jhmDoxp65OvKII0K6JP1snKMQkN+PdjchLUQd2coUvp8vUxXMwcGLMV3EcW1E3+fRAoaN6pOZCjUWpzcKNVgAlmtjDXreLJLxvDQbeHEMbI+eRrpkIc5AQxBtZQRuRDfG5NoDNbNow7lXwaOrf71NAtOUHaQss1JpSch47N/v46VMd3L3YMX/uY8pyeIUaedh0hSlP+sH2/8OuoUBZ2NvMkiyoqIZasWkM0wAQc037ImGyTDoERi1R0zuaKMLTmjApBXHC7lHLVQ9nQ7UuMkXML0Cf/ksv72NnGaaxnNuMexvX2AAPPVQjiEzZ28iJMMIAdGZ2iXO5A3dksMQKSn/XpFis/NjVi28TOodj+uuqpECTVdluzqpz3cZ8pv9vQBR7vHyAQ/V2exqa7H/brk1xbGxB7g6eac3udmotsSToGbibvBuexH9v1tnZopIs9o8DFYyWz20lFHvUQ8HkPEEEiCpnEfQgRK7FGnxgbYYzKxwB2sM0AsFL/FKhrHCgEt60FmgpgFXfaLFwXLhWaUNl1a1CZ7wfqUo8jwqmEWOjcFRZhdZeBEx6deQpDrYQId3QVwNppm47ugrc9cyj5OCKEIkHcv5GUOslCKOUjY8qftBHAeNxHwLeio1bqMNcXxu1LlPZKjSA+MQOrja9JZ7lvWxirDQyYmpSdAi2gAjANkcNAoLaqt+GV3KZdnuJajSCI/10rewqh2300uYbTICCJ2fm4mGL1acs5l2tgCUw94Q7UjH7o1wcTM59OXfU1c80j14CpynwrjFYC3ZBgb1fLocs5VhxNUB1jVl8EjwHvHyCF6KhCDnRu7Huw8WOK1cbDmKrbvAh9cv7hd8S8BkToFSKJ+SHsmx9PhoczBt81QCN+9hGwV+ztboPFNT/32qhN1mbx2xssx4UqQXwKNHnIxnd/THkkSXZDNKvhesx4c25r8Omjnho5IATI6pIn9UZAW2G1HAQD+fIQTEzNxLkBzZmTtAHg9TgE4IURMmtP1GYx2xMWY+8VKFyoEgTy+neY7oTCoNGqwmDmH3IsEmU0mocdCDFy/IFUX3hlSKMeHmMCqX9cyRUATv1UPaSIBbIqMUMyzOEe7IZFL+cmh2v+AMtmAVSFNQtBcu9mdSGG8M5+6c0Y/bSrzVLvyyo91c5fs7C5FjXVnEfsnSVJ9+1maSbroqDr2Kx+G9c9lhEBG4EsHgQD+tyk1jMRW0me14uAb97kCK+AmnqSLqZB7Crn9tEOdexynhOBJrxyAXHuKtQoy0gQ98uLRilXfKmhK/usDwHn3MAOZS5VshHE90wEigZWilw4cJzCEAjMiWzeA5BkIwgG8z0TMbecKwXa8LNYBJxzIqf3APJZCUIvstjJ3kvxUrwHhM6yzWuj49vyNXWwYjy06/K8bAS+/6t7JyKhmUgn2+3jJ9dSHnM8Pr5zJfX+t1pd/fIP7ogCz2KkXq5jtm1eWyHfg8PcT9dtmVznMgFgfPu+PRFs46IODPzjl968suvXfm7jcKv70YmGXm+8+2D97ocvnjr6zvJgsD2usX3+j8+LyEuMOV9jgPYyAY63j9c3aByd7I7b7c1h97/93+26st1uT+w7iFl/8Iuv7YqOj483OKmJNE4s9nC41X2nZML/AuRIOEq/rvS07ZBjKi/inAAdsqa6LYT50UtvblL1OaafKbFwyX1xdfbKRx9/7sRxbxLvATkmI0jzPtSFAwwUjQZEjI/wSDss8OgQLM5NFsHjwEsGpcx3M+Q9cj01d2k7GUEgTLNbceYS7O5n3nhw7+6jjSueF2NLO8kRSiSCyNh1FMIMDcdsTEpdFEIY/PytHzrngWkzerEMjdt1b1KCQDhfqPX0U3+/un9y/qhLgXnfv77q1u/opLtO2TV83qOETZusz0FcZvI9PEQsCuBcbZZTdnRiouCOf6uqPz5yQCl51X5KBScnSOjhIbb73n7/GydTAsSx9RCAbT1buhh00tBKtJ6cIBAk9M3CP733rVMRlsd5IfD7v373FZ9GuV8p8clRBEEgHL4X4hISoRa2/1z3WFYvAh3h83kpmt0pRZB/vf7o6pnvPMCmwbot038ff/LZD//zhaPnPj2vJ9RtPZdyHco7DAZFhFZii2I8CASCW/V9sYr5iJis7mNN5ADSWLGL+5jnI9c+ob76+Z89euGZ31z57rO8XASQlHfkHcXNx6I8iJjWl4/gPgDmzpYgVc+xixxGk2LyDhvVIgnSvKzoBYw7W7YJ6zjvsFlReYeNaDFJui0Uzt9//aebUNL+5w++fvLFZy9/127H6/IQCLyECGGLJQeEKy7mg1D2x/cqCurwdRQbqTLPayYHEC2eIBCSJAEK9X1C5CjhPasYRKsgCBQJkQT3ubsFFMr4ICFHzuH5bodZlfP+LvMYVKohCJQkScaYOk/biN2qLD86nUrbInexfMr53vyV+tgC7niFQaryqIBADDlCW/gKIo3usioPItp2eZK7n3rj8sW7P9lIfR71Eeh4Ql5VWGWjVSVBoABJYptx2vNQMg7Jaso52khWSxAoEvrKrijK5F2QSH/sSsYxYs3kgPzFPiiEcF2f0MNEafu3j75yj28CCxrpjgip/vjet1/Gm9aBXvEQ8EHgfvG3qiYI0I0hyQcfP3dCkqSZi/Aav/3L917+57+/dK+jx6KfkHfI/uR21SHWEy3MSUy4hfpM4G3U+p13JeLSG3aqcv/4n4yd+jgbgggwMUTBKyrPPPXO29zpEtTCx5hcAz3Unm+4UJgdQaBkDElQj94EKIQ/XTtUVutZhFSWPrvTWRIEmsWSBHVJFKCw/4kNp9BqTiHVPgqVvKzYFrrPNYnSB63Vqg8x5hhStdGarQexFQVJjDFP8evxdrnvfGkeBTnGPz76cug3qvagAjHw2s9cEvE95VoXiyCI6NzHm6ANiILjXJP52OQbGFifWeYaln57p4siiGjelyhoNxevIqSATr7X0XGv/VmS17B1XyRBAEBDEpye4b/YT41bxCAF9At9R8On/1KJIXgsliACQPN3StbmuhdR0F7IgvPSwrChngK64LN0YtygsIBdLFE05jgk9LL7tQnz2affusr1+122h4A8fUInW36ckxj7iCzeg+zDcXM1lijtPtvEkfuxBBICSDvsOL3/8fMv4HoMGaQ/HEkMG43bcxLkFouDs6F5ykFHhRaQFN2GIUG6MdrVAFnMhIp+lhLZbfZqJEU/yEmQfnjtatfkWUAICC3f51/Cw72dkRL9R4KMBNLaBUNPvXfCRg7vbC5eAjdJCCdE0YUkSDRU8RVt0miGZeId8Lf8zAuDG0hIQsTbKaYmCRKDUqI6IA662q6O1+Zw8AGZpLD9ByyFALhPEghKPBIBIkAEiAARIAJEgAgQASJABIgAESACRIAIEAEiQASIABEgAkSACBABIkAEiAARIAJEgAgQASJABIgAESACRIAIEAEiQASIABEgAkSACBABIkAEiAARIAJEgAgQASJABIgAEZgOgf8DuJnndT7V4FIAAAAASUVORK5CYII=;" vertex="1" parent="1">
          <mxGeometry x="534" y="465" width="43" height="43" as="geometry" />
        </mxCell>
        <mxCell id="XcO1IeknTUuwNreUQsLX-28" value="" style="shape=image;verticalLabelPosition=bottom;labelBackgroundColor=default;verticalAlign=top;aspect=fixed;imageAspect=0;image=data:image/png,iVBORw0KGgoAAAANSUhEUgAAAMgAAADICAYAAACtWK6eAAAAAXNSR0IArs4c6QAAAERlWElmTU0AKgAAAAgAAYdpAAQAAAABAAAAGgAAAAAAA6ABAAMAAAABAAEAAKACAAQAAAABAAAAyKADAAQAAAABAAAAyAAAAACbWz2VAAAKcklEQVR4Ae2dTXrbRgyGRaU3yJNVNlnZPoGbXeSj9CSxT9KnJ4myS30C26suml1yBbEDxlQlSxRpDoYAqJcLy/wbAC/mmx+RIhcLFghAAAIQgAAEIAABCEAAAhCAAAQgAAEIQAACEIAABCAAAQhAAAIQgAAEIAABCEAAAhCAAAQgAAEIQAACEIAABCAAAQhAAAIQgAAEIAABCEAAAhCAAAQgAAEIQAACEIAABCAAAQhAAAIQgAAEIBCVQGXp+NXVx9Vis1mJD3VVfbL0Bds+CFR1/XXryXK5fnj4tt6uG/wzuUBEFHVdf25ireuVQcyYDEYgVdI7cfnh6f52atcnE8hWGIhi6hzPyp6IZUqhFBcIwphV/XQRjIhEHJlCKG9KRtyIY7P5kmx8KGmHss+OwCpFvHr39n314+f3dcnoiwnk6uL6Ns01/izpPGWfPYHiIikyxGrEsVj8moiffQ4BUJxAVa0fH/++KWFHvQdBHCXSRJk9BD6UGm6pCgRx9KSR3SUJFBluqQ6xLi+u65IEKBsCfQSq5fJG8+Liss/g0P3Seww9luMgUIrA9iK0kgE1gaSug0m5UlIoJoNAuhAtlxcyStg7VUUg9B57TFkxJqDZi6gIhN7DuEZgfp+AYi+SLRB6j/3csOaDgFYvki0QblP3USHw4gUBpZtiswWyUHLkRXisQiCbgMZkPUsgGg5kU6AACHQReP4xXtfuIduzBNL+GnCIIY6BQEQCeQKJGDE+nw0BjfkxAjmb6kKgYwhkCURDoWOc5hwITEUgSyBTOYkdCFgRQCBW5LEbggACCZEmnLQigECsyGM3BAEEEiJNOGlFAIFYkcduCAIIJESacNKKAAKxIo/dEAQQSIg04aQVAQRiRR67IQggkBBpwkkrAgjEijx2QxBAICHShJNWBBCIFXnshiCAQEKkCSetCCAQK/LYDUEAgYRIE05aEUAgVuSxG4IAAgmRJpy0IoBArMhjNwSB30J4uetkeh+drFZVddc+l6t5eETkJzymmKq6/rpYLtfbmCK/TqLNkcT0vETNURiBdLw5aN0mQD5DvQJORJFEfuRtSG1Mt9FiSq8ru+t7d3moHKUE+B9iSUUa+FotSY4cm7qXtpJJHXO3SEWSt7IeEceBr01M6fiDHZ42tDlK/Pvckngen+4rYdB3rIf9yc/xy+Xl719KPrxaIPa1SF3ee22phor9WFyleR+z2bfNdY6ScHNfD+22B8kBL0lthOWsJ2lievi27qt0XfubeVfXTqPtYxswcVfOFSZGrg8y61YgOeDbyD1VqFzBS0wyJPNUoTR88diQtfVHPl0KRAO8BOepQmkIvolJxvkOekYNwUs8snhqyH559P9flwLRqkxNmPLVqfWiXKGbr4StY1K033xZocxIyz2XAtEKTsoZ8k2Rpr1jZalXaA+i9+DDMdjK29wJRGt4tcfJaeu052OwFe2GR70RUeLpTiBKcbkqRnXImCLTrpyvhlWiwXHaI52FQKxbJ97lOECCCu8THGDl1Ye4E0iJl/LUke9rOpJSc8FFvu/tCM9Tm9wJpOSV+VMgSu7Teqn91kcHra22SEs0jFteGf/4E0gKRhO+ZlkZnOd3qrZInfZKLgXS3vKtUqu0EznGqZR8TaF6GDJqtvhy39wYrFOc41IgUgE0KpSnGxa1hlluKpOIXqliexB8l9hcCkSc1ahQrsArVChPgm9ypNCQaYmsq4LnbncrEJmsj4UnvU9za3guHeXzm55xZKsrMbkS/DOberP5MjpPiYXHmHbT7lcgyUuBd3lxXb8mAXKsJM3rt2FNTOl3NK8ZQorYm5h2M+fof4npVTl6bsC8i0MQpzs7xi9T/oCnvQXl2FXptrI1w7LU84yPaNozm5jSFeRjV8a3MYnYAy19MU2ao3TFP/cHU2EEclBH2tsdAgniIIbdDW08so2YdsmM/19BIGEe2nBAaS6VqA1sbvFIXDOIyfUcpK07fELAigACsSKP3RAEEEiINOGkFQEEYkUeuyEIIJAQacJJKwIIxIo8dkMQQCAh0oSTVgQQiBV57IYggEBCpAknrQggECvy2A1BAIGESBNOWhFAIFbksRuCAAIJkSactCKAQKzIYzcEAQQSIk04aUUAgViRx24IAggkRJpw0ooAArEij90QBBBIiDThpBUBBGJFHrshCGQJxPq9GyEI42RoAlkCCR05zs+egEYDnicQp6/Nmn3mCXAyAnkCmcxNDEHAhkDWkxXFZXl2ro3rWIXAaQKPT/fZ9Tu/B9l9ZOZpf9kLgXAEsgVSVdVduKhxePYEUtehUi+zBXLsyeSzp0+A/gkofYGULRAhpaVW/9TxMAIBqY9aDXcqS2dhsq7DkVLyCWhMzlsvVHoQKYxepEXKpyUB7Xqo1oMIlCnfOGWZBGz7JaDZe0iUaj2IFJb7uispgwUCYwlUy+XN2HO7zlMViBgp4WSX82yHQEtAhlZaE/O2TPl8s7ui8f+PH//+8+7texm6rTTKowwI9BFoxPF0f9t33Jj9UpGLLM17vYO9obUICAotSkBGLCV6jtbpYgJpDTBxb0nwqUog3eIkd3GUFIf4qz7Eegnh58/vfzHkekmF9RwCMqRK31b9IcP5nHKGnFu8B9l14uri+jbd+vt5dxv/Q2AoARHGQ6G5RpcPkwqkdULmJ4vNZoVYWiJ8dhKYaCjVZd9EIC+daQQjG5NoXu6bw3pdVZ8WdT2r2KQ1L5KbnZsMS88vhvjvQiBDHI1+zKyGl6lVP5eLwuoXCqNX5FL+y9i5WKtbymnK1b3VBJ6nCSCS03w87qUHmTgrIpLmhjp+qjwx+XHmEMg4btlnyRieIVc2xuIFIJDiiLsNMOTqZuNlDwIxzgQiMU5Aj3kE0gNoit3MS6agPM4GAhnHrchZzEuKYM0qFIFk4dM/mSGXPtOcEhFIDr1C5yKSQmBHFItARkCb4hTmJVNQ7reBQPoZmR7BvMQUP7ea2OIfZp0h1zBOJY6iBylBtUCZiKQA1AFFIpABkLwcwrxk+kwgkOmZZ1tkXpKNcHABCGQwKl8HMuSaJh8IZBrORawgkiJY9wpFIHs44q0wLymbMwRSlu9kpTMvKYMagZThalIqQy597AhEn6lpiY1ICrwGwDQoQ+MIxBB+KdPyPCl+965DF4HocHRZCvOS/LQgkHyGrktgXpKXHgSSxy/E2cxLxqcJgYxnF+pM5iXj0oVAxnELexbzktelDoG8jtcsjmZeMjyNCGQ4q1kdybxkWDoRyDBOszyKeUl/WhFIP6PZH8G8pDvFCKSbzVntYV5yPN0I5DiXs9zKvOQw7QjkkMlZb2Fesp9+BLLPg7VnAsxLfoFAIEiikwDzkgUPjuusHexoCJz7vIQeBCH0EjjneQkC6a0eHNASYF7SkuATAicIXF19XJ3YzS4IQAACEIAABCAAAQhAAAIQgAAEIAABCEAAAhCAAAQgAAEIQAACEIAABCAAAQhAAAIQgAAEIAABCEAAAhCAAAQgAAEIQAACEIAABCAAAQhAAAIQgAAEIAABCEAAAhCAAAQgAAEIQAACEIAABCAAARcE/gOea+L37fJ+6QAAAABJRU5ErkJggg==;" vertex="1" parent="1">
          <mxGeometry x="190" y="326" width="43" height="43" as="geometry" />
        </mxCell>
        <mxCell id="XcO1IeknTUuwNreUQsLX-30" value="&lt;font style=&quot;font-size: 16px;&quot;&gt;回答&lt;/font&gt;" style="text;html=1;align=center;verticalAlign=middle;whiteSpace=wrap;rounded=0;" vertex="1" parent="1">
          <mxGeometry x="181.5" y="361" width="60" height="30" as="geometry" />
        </mxCell>
      </root>
    </mxGraphModel>
  </diagram>
</mxfile>
